<svg xmlns="http://www.w3.org/2000/svg" xmlns:xlink="http://www.w3.org/1999/xlink" width="255" height="92"><defs><path id="a" d="M0 0h320v205H0z"/></defs><g fill="none" fill-rule="evenodd" opacity=".8" transform="matrix(1 0 0 -1 -43 205)"><mask id="b" fill="#fff"><use xlink:href="#a"/></mask><use fill="#222426" fill-opacity="0" xlink:href="#a"/><g fill="#8379F2" mask="url(#b)" opacity=".5"><g transform="translate(104 144)"><rect width="10" height="10" y="51" rx="5"/><rect width="10" height="10" x="62" y="20" rx="5"/><rect width="10" height="10" x="174" rx="5"/><rect width="10" height="10" x="123" y="10" rx="5"/><rect width="10" height="10" x="102" y="51" fill-opacity=".5" rx="5"/></g></g><g mask="url(#b)" opacity=".25"><g transform="translate(43 118)"><rect width="10" height="10" x="245" y="57" fill="#7979F2" rx="5"/><rect width="10" height="10" x="235" y="21" fill="#7979F2" rx="5"/><rect width="10" height="10" x="189" y="31" fill="#7979F2" rx="5"/><rect width="10" height="10" x="72" y="66" fill="#7979F2" rx="5"/><rect width="10" height="10" x="31" y="36" fill="#7979F2" rx="5"/><rect width="10" height="10" x="78" fill="#7979F2" fill-opacity=".25" rx="5"/><rect width="10" height="10" y="5" fill="#8379F2" fill-opacity=".25" rx="5"/></g></g><g fill="#FFF" mask="url(#b)"><g transform="translate(113 113)"><rect width="10" height="10" x="73" y="21" fill-opacity=".5" rx="5"/><rect width="10" height="10" x="1" fill-opacity=".25" rx="5"/><rect width="10" height="10" x="109" y="56" fill-opacity=".5" rx="5"/><rect width="10" height="10" x="63" y="61" fill-opacity=".25" rx="5"/></g></g></g></svg>